# xmcd
#
# Track frame offsets:
#	150
#	14075
#	45427
#	64682
#	85485
#	105692
#	121082
#	141592
#	159417
#
# Disc length: 3171 seconds
#
# Revision: 1
# Processed by: cddbd v1.5.1PL2 Copyright (c) Steve Scherf et al.
# Submitted via: audiograbber 1.83.01
#
DISCID=770c6109
DTITLE=The Disappointments - Wet Your Beak
DYEAR=1900
DGENRE=
TTITLE0=In Memory Of Husky
TTITLE1=Medley: The Circus Comes To Prague/Matty The Outlaw
TTITLE2=$50 For A Dirty Numberplate
TTITLE3=All These Blessings
TTITLE4=Bad Perfume
TTITLE5=Arnold The Bat
TTITLE6=The Attractive Tractor
TTITLE7=Timmy Goes To The Parade
TTITLE8=Showbiz
EXTD=
EXTT0=
EXTT1=
EXTT2=
EXTT3=
EXTT4=
EXTT5=
EXTT6=
EXTT7=
EXTT8=
PLAYORDER=
